<svg width="488" height="425" viewBox="0 0 488 425" fill="none" xmlns="http://www.w3.org/2000/svg">
<g clip-path="url(#clip0_812_3)">
<path d="M439.589 220.998C439.652 273.545 419.342 324.07 382.926 361.953C380.731 364.251 378.476 366.495 376.162 368.682C372.637 372.036 368.993 375.259 365.231 378.353C330.037 407.349 286.1 423.643 240.51 424.606C238.991 424.64 237.466 424.657 235.936 424.657C199.576 424.657 153.845 405.237 112.344 378.353C108.91 376.129 105.507 373.853 102.135 371.526C100.559 370.448 98.9899 369.355 97.4288 368.247C81.4224 356.944 66.2292 344.532 51.9611 331.102C42.6193 322.335 33.8591 312.968 25.7364 303.06C-6.15178 263.726 -13.1852 228.284 32.2768 220.998C37.6593 220.139 42.8833 219.22 47.9486 218.241C55.2858 216.831 62.3078 215.308 69.0144 213.673C78.0483 211.477 86.5358 209.096 94.4768 206.53C97.148 205.671 99.758 204.794 102.307 203.899C139.99 190.664 165.212 173.404 182.38 154.677C185.292 151.507 187.976 148.299 190.434 145.053C194.193 140.111 197.608 134.917 200.654 129.507C204.858 121.99 208.39 114.116 211.207 105.976L211.362 105.529C225.022 66.1262 220.866 29.5778 235.936 17.3453C300.354 -34.9494 380.553 39.5231 418.196 127.346C420.094 131.771 421.878 136.223 423.55 140.702C424.301 142.703 425.025 144.707 425.723 146.715C427.557 151.948 429.221 157.195 430.715 162.456C431.289 164.462 431.835 166.466 432.355 168.469C432.911 170.63 433.444 172.785 433.937 174.94C437.6 190.721 439.589 206.284 439.589 220.998Z" fill="#DCE3F1"/>
<path d="M240.51 424.606C238.991 424.64 237.466 424.657 235.936 424.657C199.576 424.657 153.845 405.237 112.344 378.353C108.91 376.129 105.507 373.853 102.135 371.526L105.093 353.527L194.635 341.638L239.576 376.002L240.51 424.606Z" fill="#2F2E41"/>
<path d="M244.821 103.208H232.061C231.666 103.208 231.287 103.365 231.007 103.645C230.728 103.924 230.571 104.303 230.57 104.698V117.464C230.571 117.659 230.609 117.853 230.684 118.033C230.759 118.213 230.869 118.377 231.008 118.515C231.146 118.653 231.31 118.762 231.491 118.837C231.672 118.911 231.865 118.949 232.061 118.948H244.821C245.215 118.949 245.593 118.792 245.873 118.514C246.152 118.236 246.31 117.858 246.311 117.464V104.698C246.31 104.303 246.152 103.925 245.873 103.646C245.594 103.366 245.215 103.209 244.821 103.208Z" fill="white"/>
<path d="M244.821 124.961H232.061C231.666 124.962 231.287 125.119 231.007 125.398C230.728 125.678 230.571 126.057 230.57 126.452V139.217C230.571 139.413 230.609 139.606 230.684 139.787C230.759 139.967 230.869 140.131 231.008 140.269C231.146 140.407 231.31 140.516 231.491 140.59C231.672 140.665 231.865 140.703 232.061 140.702H244.821C245.215 140.702 245.593 140.546 245.873 140.268C246.152 139.989 246.31 139.612 246.311 139.217V126.452C246.31 126.057 246.152 125.678 245.873 125.399C245.594 125.12 245.215 124.963 244.821 124.961Z" fill="#B8B8B8"/>
<path d="M244.821 146.715H232.061C231.666 146.715 231.287 146.872 231.007 147.152C230.728 147.431 230.571 147.81 230.57 148.205V160.965C230.57 161.161 230.608 161.355 230.683 161.536C230.758 161.717 230.868 161.882 231.006 162.02C231.145 162.158 231.309 162.268 231.49 162.343C231.671 162.418 231.865 162.456 232.061 162.456H244.821C245.216 162.455 245.595 162.298 245.874 162.019C246.154 161.739 246.311 161.361 246.311 160.965V148.205C246.31 147.811 246.152 147.432 245.873 147.153C245.594 146.874 245.215 146.716 244.821 146.715Z" fill="#B8B8B8"/>
<path d="M246.288 169.695C246.224 169.352 246.043 169.042 245.775 168.818C245.507 168.594 245.17 168.47 244.821 168.469H232.061C231.666 168.469 231.287 168.626 231.007 168.905C230.728 169.185 230.571 169.564 230.57 169.959V182.719C230.57 182.915 230.608 183.109 230.683 183.29C230.758 183.471 230.868 183.635 231.006 183.774C231.144 183.912 231.309 184.022 231.49 184.097C231.671 184.171 231.865 184.21 232.061 184.209H244.821C245.216 184.209 245.595 184.052 245.874 183.773C246.154 183.493 246.311 183.114 246.311 182.719V169.959C246.312 169.871 246.304 169.782 246.288 169.695Z" fill="#B8B8B8"/>
<path d="M245.4 190.337C245.216 190.261 245.019 190.222 244.821 190.222H232.061C231.865 190.222 231.671 190.26 231.49 190.335C231.309 190.41 231.144 190.52 231.006 190.658C230.868 190.796 230.758 190.961 230.683 191.142C230.608 191.323 230.57 191.517 230.57 191.713V204.473C230.57 204.669 230.607 204.863 230.682 205.044C230.757 205.225 230.866 205.39 231.005 205.528C231.144 205.667 231.308 205.777 231.489 205.851C231.671 205.926 231.865 205.964 232.061 205.963H244.821C245.216 205.963 245.595 205.806 245.874 205.526C246.154 205.247 246.311 204.868 246.311 204.473V191.713C246.31 191.419 246.224 191.133 246.062 190.888C245.9 190.644 245.669 190.452 245.4 190.337Z" fill="#B8B8B8"/>
<path d="M271.624 103.208H258.864C258.469 103.208 258.09 103.365 257.811 103.645C257.531 103.924 257.374 104.303 257.374 104.698V117.464C257.374 117.659 257.413 117.853 257.488 118.033C257.563 118.213 257.673 118.377 257.811 118.515C257.95 118.653 258.114 118.762 258.295 118.837C258.475 118.911 258.669 118.949 258.864 118.948H271.624C272.019 118.949 272.397 118.792 272.676 118.514C272.956 118.236 273.113 117.858 273.115 117.464V104.698C273.113 104.303 272.956 103.925 272.677 103.646C272.398 103.366 272.019 103.209 271.624 103.208Z" fill="#B8B8B8"/>
<path d="M271.624 124.961H258.864C258.469 124.962 258.09 125.119 257.811 125.398C257.531 125.678 257.374 126.057 257.374 126.452V139.217C257.374 139.413 257.413 139.606 257.488 139.787C257.563 139.967 257.673 140.131 257.811 140.269C257.95 140.407 258.114 140.516 258.295 140.59C258.475 140.665 258.669 140.703 258.864 140.702H271.624C272.019 140.702 272.397 140.546 272.676 140.268C272.956 139.989 273.113 139.612 273.115 139.217V126.452C273.113 126.057 272.956 125.678 272.677 125.399C272.398 125.12 272.019 124.963 271.624 124.961Z" fill="#9871F5"/>
<path d="M271.624 146.715H258.864C258.469 146.715 258.09 146.872 257.811 147.152C257.531 147.431 257.374 147.81 257.374 148.205V160.965C257.374 161.161 257.412 161.355 257.487 161.536C257.561 161.717 257.671 161.882 257.81 162.02C257.948 162.158 258.113 162.268 258.294 162.343C258.475 162.418 258.669 162.456 258.864 162.456H271.624C272.019 162.455 272.398 162.298 272.678 162.019C272.957 161.739 273.114 161.361 273.115 160.965V148.205C273.113 147.811 272.956 147.432 272.677 147.153C272.398 146.874 272.019 146.716 271.624 146.715Z" fill="#9871F5"/>
<path d="M271.624 168.469H258.864C258.552 168.469 258.247 168.568 257.994 168.751C257.741 168.934 257.552 169.192 257.454 169.489C257.401 169.64 257.374 169.799 257.374 169.959V182.719C257.374 182.915 257.412 183.109 257.487 183.29C257.561 183.471 257.671 183.635 257.81 183.774C257.948 183.912 258.113 184.022 258.294 184.097C258.475 184.171 258.669 184.21 258.864 184.209H271.624C272.019 184.209 272.398 184.052 272.678 183.773C272.957 183.493 273.114 183.114 273.115 182.719V169.959C273.113 169.564 272.956 169.186 272.677 168.906C272.398 168.627 272.019 168.47 271.624 168.469Z" fill="#9871F5"/>
<path d="M271.624 190.222H258.864C258.669 190.222 258.475 190.26 258.294 190.335C258.113 190.41 257.948 190.52 257.81 190.658C257.671 190.796 257.561 190.961 257.487 191.142C257.412 191.323 257.374 191.517 257.374 191.713V204.473C257.374 204.668 257.412 204.862 257.487 205.043C257.561 205.224 257.671 205.389 257.81 205.527C257.948 205.666 258.113 205.776 258.294 205.85C258.475 205.925 258.669 205.963 258.864 205.963H271.624C272.019 205.963 272.398 205.806 272.678 205.526C272.957 205.247 273.114 204.868 273.115 204.473V191.713C273.114 191.318 272.957 190.939 272.678 190.659C272.398 190.38 272.019 190.223 271.624 190.222Z" fill="#B8B8B8"/>
<path d="M298.428 103.208H285.668C285.273 103.208 284.894 103.365 284.615 103.645C284.335 103.924 284.178 104.303 284.178 104.698V117.464C284.178 117.659 284.217 117.853 284.292 118.033C284.367 118.213 284.477 118.377 284.615 118.515C284.754 118.653 284.918 118.762 285.098 118.837C285.279 118.911 285.473 118.949 285.668 118.948H298.428C298.822 118.949 299.201 118.792 299.48 118.514C299.759 118.236 299.917 117.858 299.918 117.464V104.698C299.917 104.303 299.76 103.925 299.481 103.646C299.201 103.366 298.823 103.209 298.428 103.208Z" fill="#9871F5"/>
<path d="M298.428 124.961H285.668C285.273 124.962 284.894 125.119 284.615 125.398C284.335 125.678 284.178 126.057 284.178 126.452V139.217C284.178 139.413 284.217 139.606 284.292 139.787C284.367 139.967 284.477 140.131 284.615 140.269C284.754 140.407 284.918 140.516 285.098 140.59C285.279 140.665 285.473 140.703 285.668 140.702H298.428C298.822 140.702 299.201 140.546 299.48 140.268C299.759 139.989 299.917 139.612 299.918 139.217V126.452C299.917 126.057 299.76 125.678 299.481 125.399C299.201 125.12 298.823 124.963 298.428 124.961Z" fill="#9871F5"/>
<path d="M298.428 146.715H285.668C285.273 146.715 284.894 146.872 284.615 147.152C284.335 147.431 284.178 147.81 284.178 148.205V160.965C284.177 161.161 284.216 161.355 284.291 161.536C284.365 161.717 284.475 161.882 284.613 162.02C284.752 162.158 284.916 162.268 285.097 162.343C285.278 162.418 285.472 162.456 285.668 162.456H298.428C298.823 162.455 299.202 162.298 299.482 162.019C299.761 161.739 299.918 161.361 299.918 160.965V148.205C299.917 147.811 299.76 147.432 299.481 147.153C299.201 146.874 298.823 146.716 298.428 146.715Z" fill="#B8B8B8"/>
<path d="M298.428 168.469H285.668C285.273 168.469 284.894 168.626 284.615 168.905C284.335 169.185 284.178 169.564 284.178 169.959V182.719C284.177 182.915 284.216 183.109 284.29 183.29C284.365 183.471 284.475 183.635 284.613 183.774C284.752 183.912 284.916 184.022 285.097 184.097C285.278 184.171 285.472 184.21 285.668 184.209H298.428C298.823 184.209 299.202 184.052 299.482 183.773C299.761 183.493 299.918 183.114 299.918 182.719V169.959C299.917 169.564 299.76 169.186 299.481 168.906C299.201 168.627 298.823 168.47 298.428 168.469Z" fill="#9871F5"/>
<path d="M298.428 190.222H285.668C285.472 190.222 285.278 190.26 285.097 190.335C284.916 190.41 284.752 190.52 284.613 190.658C284.475 190.796 284.365 190.961 284.291 191.142C284.216 191.323 284.177 191.517 284.178 191.713V204.473C284.177 204.668 284.216 204.862 284.29 205.043C284.365 205.224 284.475 205.389 284.613 205.527C284.752 205.666 284.916 205.776 285.097 205.85C285.278 205.925 285.472 205.963 285.668 205.963H298.428C298.823 205.963 299.202 205.806 299.482 205.526C299.761 205.247 299.918 204.868 299.918 204.473V191.713C299.918 191.318 299.761 190.939 299.482 190.659C299.202 190.38 298.823 190.223 298.428 190.222Z" fill="#9871F5"/>
<path d="M325.232 103.208H312.472C312.077 103.208 311.698 103.365 311.418 103.645C311.139 103.924 310.982 104.303 310.981 104.698V117.464C310.982 117.659 311.02 117.853 311.095 118.033C311.17 118.213 311.28 118.377 311.419 118.515C311.557 118.653 311.721 118.762 311.902 118.837C312.083 118.911 312.276 118.949 312.472 118.948H325.232C325.626 118.949 326.004 118.792 326.284 118.514C326.563 118.236 326.721 117.858 326.722 117.464V104.698C326.721 104.303 326.563 103.925 326.284 103.646C326.005 103.366 325.627 103.209 325.232 103.208Z" fill="#9871F5"/>
<path d="M325.232 124.961H312.472C312.077 124.962 311.698 125.119 311.418 125.398C311.139 125.678 310.982 126.057 310.981 126.452V139.217C310.982 139.413 311.02 139.606 311.095 139.787C311.17 139.967 311.28 140.131 311.419 140.269C311.557 140.407 311.721 140.516 311.902 140.59C312.083 140.665 312.276 140.703 312.472 140.702H325.232C325.626 140.702 326.004 140.546 326.284 140.268C326.563 139.989 326.721 139.612 326.722 139.217V126.452C326.721 126.057 326.564 125.678 326.284 125.399C326.005 125.12 325.627 124.963 325.232 124.961Z" fill="white"/>
<path d="M325.232 146.715H312.472C312.077 146.715 311.698 146.872 311.418 147.152C311.139 147.431 310.982 147.81 310.981 148.205V160.965C310.981 161.161 311.019 161.355 311.094 161.536C311.169 161.717 311.279 161.882 311.417 162.02C311.556 162.158 311.72 162.268 311.901 162.343C312.082 162.418 312.276 162.456 312.472 162.456H325.232C325.627 162.455 326.006 162.298 326.285 162.019C326.565 161.739 326.722 161.361 326.722 160.965V148.205C326.721 147.811 326.564 147.432 326.284 147.153C326.005 146.874 325.627 146.716 325.232 146.715Z" fill="white"/>
<path d="M325.232 168.469H312.472C312.077 168.469 311.698 168.626 311.418 168.905C311.139 169.185 310.982 169.564 310.981 169.959V182.719C310.981 182.915 311.019 183.109 311.094 183.29C311.169 183.471 311.279 183.635 311.417 183.774C311.556 183.912 311.72 184.022 311.901 184.097C312.082 184.171 312.276 184.21 312.472 184.209H325.232C325.627 184.209 326.006 184.052 326.285 183.773C326.565 183.493 326.722 183.114 326.722 182.719V169.959C326.721 169.564 326.564 169.186 326.284 168.906C326.005 168.627 325.627 168.47 325.232 168.469Z" fill="#B8B8B8"/>
<path d="M325.232 190.222H312.472C312.276 190.222 312.082 190.26 311.901 190.335C311.72 190.41 311.556 190.52 311.417 190.658C311.279 190.796 311.169 190.961 311.094 191.142C311.019 191.323 310.981 191.517 310.981 191.713V204.473C310.981 204.668 311.019 204.862 311.094 205.043C311.169 205.224 311.279 205.389 311.417 205.527C311.556 205.666 311.72 205.776 311.901 205.85C312.082 205.925 312.276 205.963 312.472 205.963H325.232C325.627 205.963 326.006 205.806 326.285 205.526C326.565 205.247 326.722 204.868 326.722 204.473V191.713C326.722 191.318 326.565 190.939 326.285 190.659C326.006 190.38 325.627 190.223 325.232 190.222Z" fill="#9871F5"/>
<path d="M352.035 103.208H339.27C338.875 103.209 338.498 103.367 338.22 103.646C337.941 103.926 337.785 104.304 337.785 104.698V117.464C337.785 117.857 337.942 118.235 338.22 118.513C338.499 118.792 338.876 118.948 339.27 118.948H352.035C352.43 118.949 352.808 118.792 353.087 118.514C353.367 118.236 353.524 117.858 353.526 117.464V104.698C353.525 104.303 353.367 103.925 353.088 103.646C352.809 103.366 352.43 103.209 352.035 103.208Z" fill="white"/>
<path d="M352.035 124.961H339.27C338.875 124.963 338.498 125.12 338.219 125.4C337.941 125.679 337.785 126.057 337.785 126.452V139.217C337.785 139.611 337.942 139.989 338.22 140.267C338.499 140.545 338.876 140.702 339.27 140.702H352.035C352.43 140.702 352.808 140.546 353.087 140.268C353.367 139.989 353.524 139.612 353.526 139.217V126.452C353.525 126.057 353.367 125.678 353.088 125.399C352.809 125.12 352.43 124.963 352.035 124.961Z" fill="white"/>
<path d="M352.035 146.715H339.27C338.875 146.716 338.498 146.874 338.22 147.153C337.941 147.433 337.785 147.811 337.785 148.205V160.965C337.785 161.161 337.823 161.354 337.897 161.535C337.971 161.716 338.081 161.88 338.218 162.018C338.356 162.157 338.52 162.267 338.701 162.342C338.881 162.417 339.074 162.455 339.27 162.456H352.035C352.431 162.455 352.81 162.298 353.089 162.019C353.369 161.739 353.526 161.361 353.526 160.965V148.205C353.525 147.811 353.367 147.432 353.088 147.153C352.809 146.874 352.43 146.716 352.035 146.715Z" fill="white"/>
<path d="M352.035 168.469H339.27C338.875 168.47 338.498 168.628 338.22 168.907C337.941 169.186 337.785 169.565 337.785 169.959V182.719C337.785 182.914 337.823 183.108 337.897 183.289C337.971 183.469 338.081 183.634 338.218 183.772C338.356 183.91 338.52 184.02 338.701 184.095C338.881 184.17 339.074 184.209 339.27 184.209H352.035C352.431 184.209 352.81 184.052 353.089 183.773C353.369 183.493 353.526 183.114 353.526 182.719V169.959C353.525 169.564 353.367 169.186 353.088 168.906C352.809 168.627 352.43 168.47 352.035 168.469Z" fill="#9871F5"/>
<path d="M352.035 190.222H339.27C339.074 190.223 338.881 190.261 338.701 190.336C338.52 190.411 338.356 190.521 338.218 190.66C338.081 190.798 337.971 190.962 337.897 191.143C337.823 191.324 337.785 191.517 337.785 191.713V204.473C337.785 204.668 337.823 204.862 337.897 205.042C337.971 205.223 338.081 205.387 338.218 205.526C338.356 205.664 338.52 205.774 338.701 205.849C338.881 205.924 339.074 205.963 339.27 205.963H352.035C352.431 205.963 352.81 205.806 353.089 205.526C353.369 205.247 353.526 204.868 353.526 204.473V191.713C353.526 191.318 353.369 190.939 353.089 190.659C352.81 190.38 352.431 190.223 352.035 190.222Z" fill="#B8B8B8"/>
<path d="M378.839 103.208H366.073C365.679 103.209 365.301 103.367 365.023 103.646C364.745 103.926 364.589 104.304 364.589 104.698V117.464C364.589 117.857 364.745 118.235 365.024 118.513C365.302 118.792 365.68 118.948 366.073 118.948H378.839C379.233 118.948 379.612 118.792 379.891 118.514C380.17 118.236 380.328 117.858 380.329 117.464V104.698C380.328 104.303 380.171 103.925 379.892 103.646C379.612 103.366 379.234 103.209 378.839 103.208Z" fill="white"/>
<path d="M378.839 124.961H366.073C365.679 124.963 365.301 125.12 365.023 125.4C364.745 125.679 364.589 126.057 364.589 126.452V139.217C364.589 139.611 364.745 139.989 365.024 140.267C365.302 140.545 365.68 140.702 366.073 140.702H378.839C379.233 140.702 379.612 140.546 379.891 140.268C380.17 139.989 380.328 139.612 380.329 139.217V126.452C380.328 126.057 380.171 125.678 379.892 125.399C379.612 125.12 379.234 124.963 378.839 124.961Z" fill="white"/>
<path d="M378.839 146.715H366.073C365.679 146.716 365.301 146.874 365.023 147.153C364.745 147.433 364.589 147.811 364.589 148.205V160.965C364.588 161.161 364.626 161.354 364.701 161.535C364.775 161.716 364.884 161.88 365.022 162.018C365.16 162.157 365.324 162.267 365.504 162.342C365.685 162.417 365.878 162.455 366.073 162.456H378.839C379.234 162.455 379.613 162.298 379.893 162.019C380.172 161.739 380.329 161.361 380.329 160.965V148.205C380.328 147.811 380.171 147.432 379.892 147.153C379.612 146.874 379.234 146.716 378.839 146.715Z" fill="#9871F5"/>
<path d="M378.839 168.469H366.073C365.679 168.47 365.301 168.628 365.023 168.907C364.745 169.186 364.589 169.565 364.589 169.959V182.719C364.588 182.914 364.626 183.108 364.701 183.289C364.775 183.469 364.884 183.634 365.022 183.772C365.16 183.91 365.324 184.02 365.504 184.095C365.685 184.17 365.878 184.209 366.073 184.209H378.839C379.234 184.209 379.613 184.052 379.893 183.773C380.172 183.493 380.329 183.114 380.329 182.719V169.959C380.328 169.564 380.171 169.186 379.892 168.906C379.612 168.627 379.234 168.47 378.839 168.469Z" fill="#B8B8B8"/>
<path d="M378.839 190.222H366.073C365.878 190.223 365.685 190.261 365.504 190.336C365.324 190.411 365.16 190.521 365.022 190.66C364.884 190.798 364.775 190.962 364.701 191.143C364.626 191.324 364.588 191.517 364.589 191.713V204.473C364.588 204.668 364.626 204.862 364.701 205.042C364.775 205.223 364.884 205.387 365.022 205.526C365.16 205.664 365.324 205.774 365.504 205.849C365.685 205.924 365.878 205.963 366.073 205.963H378.839C379.234 205.963 379.613 205.806 379.893 205.526C380.172 205.247 380.329 204.868 380.329 204.473V191.713C380.329 191.318 380.172 190.939 379.893 190.659C379.613 190.38 379.234 190.223 378.839 190.222Z" fill="white"/>
<path d="M405.643 103.208H392.877C392.483 103.209 392.105 103.367 391.827 103.646C391.549 103.926 391.392 104.304 391.393 104.698V117.464C391.393 117.857 391.549 118.235 391.827 118.513C392.106 118.792 392.483 118.948 392.877 118.948H405.643C406.037 118.948 406.415 118.792 406.695 118.514C406.974 118.236 407.132 117.858 407.133 117.464V104.698C407.132 104.303 406.975 103.925 406.695 103.646C406.416 103.366 406.038 103.209 405.643 103.208Z" fill="#9871F5"/>
<path d="M405.643 124.961H392.877C392.483 124.963 392.105 125.12 391.827 125.4C391.549 125.679 391.392 126.057 391.393 126.452V139.217C391.393 139.611 391.549 139.989 391.827 140.267C392.106 140.545 392.484 140.702 392.877 140.702H405.643C406.037 140.702 406.415 140.546 406.695 140.268C406.974 139.989 407.132 139.612 407.133 139.217V126.452C407.132 126.057 406.975 125.678 406.695 125.399C406.416 125.12 406.038 124.963 405.643 124.961Z" fill="#9871F5"/>
<path d="M405.643 146.715H392.877C392.483 146.716 392.105 146.874 391.827 147.153C391.549 147.433 391.392 147.811 391.393 148.205V160.965C391.392 161.161 391.43 161.354 391.504 161.535C391.579 161.716 391.688 161.88 391.826 162.018C391.964 162.157 392.128 162.267 392.308 162.342C392.488 162.417 392.682 162.455 392.877 162.456H405.643C406.038 162.455 406.417 162.298 406.696 162.019C406.976 161.739 407.133 161.361 407.133 160.965V148.205C407.132 147.811 406.975 147.432 406.695 147.153C406.416 146.874 406.038 146.716 405.643 146.715Z" fill="#B8B8B8"/>
<path d="M405.643 168.469H392.877C392.483 168.47 392.105 168.628 391.827 168.907C391.549 169.186 391.392 169.565 391.393 169.959V182.719C391.392 182.914 391.43 183.108 391.504 183.289C391.579 183.469 391.688 183.634 391.826 183.772C391.964 183.91 392.128 184.02 392.308 184.095C392.488 184.17 392.682 184.209 392.877 184.209H405.643C406.038 184.209 406.417 184.052 406.696 183.773C406.976 183.493 407.133 183.114 407.133 182.719V169.959C407.132 169.564 406.975 169.186 406.695 168.906C406.416 168.627 406.038 168.47 405.643 168.469Z" fill="white"/>
<path d="M405.643 190.222H392.877C392.682 190.223 392.488 190.261 392.308 190.336C392.128 190.411 391.964 190.521 391.826 190.66C391.688 190.798 391.579 190.962 391.504 191.143C391.43 191.324 391.392 191.517 391.393 191.713V204.473C391.392 204.668 391.43 204.862 391.504 205.042C391.579 205.223 391.688 205.387 391.826 205.526C391.964 205.664 392.128 205.774 392.308 205.849C392.488 205.924 392.682 205.963 392.877 205.963H405.643C406.038 205.963 406.417 205.806 406.696 205.526C406.976 205.247 407.133 204.868 407.133 204.473V191.713C407.133 191.318 406.976 190.939 406.696 190.659C406.417 190.38 406.038 190.223 405.643 190.222Z" fill="#9871F5"/>
<path d="M432.446 103.208H419.681C419.287 103.209 418.909 103.367 418.631 103.646C418.352 103.926 418.196 104.304 418.196 104.698V117.464C418.196 117.857 418.353 118.235 418.631 118.513C418.91 118.792 419.287 118.948 419.681 118.948H432.446C432.841 118.948 433.219 118.792 433.499 118.514C433.778 118.236 433.936 117.858 433.937 117.464V104.698C433.936 104.303 433.778 103.925 433.499 103.646C433.22 103.366 432.841 103.209 432.446 103.208Z" fill="#9871F5"/>
<path d="M432.446 124.961H419.681C419.287 124.963 418.909 125.12 418.631 125.4C418.352 125.679 418.196 126.057 418.196 126.452V139.217C418.196 139.611 418.353 139.989 418.631 140.267C418.91 140.545 419.287 140.702 419.681 140.702H432.446C432.841 140.702 433.219 140.546 433.499 140.268C433.778 139.989 433.936 139.612 433.937 139.217V126.452C433.936 126.057 433.778 125.678 433.499 125.399C433.22 125.12 432.841 124.963 432.446 124.961Z" fill="#9871F5"/>
<path d="M432.447 146.715H419.681C419.287 146.716 418.909 146.874 418.631 147.153C418.352 147.433 418.196 147.811 418.196 148.205V160.965C418.196 161.161 418.234 161.354 418.308 161.535C418.382 161.716 418.492 161.88 418.63 162.018C418.767 162.157 418.931 162.267 419.112 162.342C419.292 162.417 419.486 162.455 419.681 162.456H432.447C432.842 162.455 433.221 162.298 433.5 162.019C433.78 161.739 433.937 161.361 433.937 160.965V148.205C433.936 147.811 433.778 147.432 433.499 147.153C433.22 146.874 432.841 146.716 432.447 146.715Z" fill="#B8B8B8"/>
<path d="M432.447 168.469H419.681C419.287 168.47 418.909 168.628 418.631 168.907C418.352 169.186 418.196 169.565 418.196 169.959V182.719C418.196 182.914 418.234 183.108 418.308 183.289C418.382 183.469 418.492 183.634 418.63 183.772C418.767 183.91 418.931 184.02 419.112 184.095C419.292 184.17 419.486 184.209 419.681 184.209H432.447C432.842 184.209 433.221 184.052 433.5 183.773C433.78 183.493 433.937 183.114 433.937 182.719V169.959C433.936 169.564 433.778 169.186 433.499 168.906C433.22 168.627 432.841 168.47 432.447 168.469Z" fill="#9871F5"/>
<path d="M432.447 190.222H419.681C419.486 190.223 419.292 190.261 419.112 190.336C418.931 190.411 418.767 190.521 418.63 190.66C418.492 190.798 418.382 190.962 418.308 191.143C418.234 191.324 418.196 191.517 418.196 191.713V204.473C418.196 204.668 418.234 204.862 418.308 205.042C418.382 205.223 418.492 205.387 418.63 205.526C418.767 205.664 418.931 205.774 419.112 205.849C419.292 205.924 419.486 205.963 419.681 205.963H432.447C432.842 205.963 433.221 205.806 433.5 205.526C433.78 205.247 433.937 204.868 433.937 204.473V191.713C433.937 191.318 433.78 190.939 433.5 190.659C433.221 190.38 432.842 190.223 432.447 190.222Z" fill="#9871F5"/>
<path d="M459.25 103.208H446.484C446.09 103.209 445.713 103.367 445.434 103.646C445.156 103.926 445 104.304 445 104.698V117.464C445 117.857 445.156 118.235 445.435 118.513C445.713 118.792 446.091 118.948 446.484 118.948H459.25C459.644 118.948 460.023 118.792 460.302 118.514C460.581 118.236 460.739 117.858 460.74 117.464V104.698C460.739 104.303 460.582 103.925 460.303 103.646C460.023 103.366 459.645 103.209 459.25 103.208Z" fill="#B8B8B8"/>
<path d="M459.25 124.961H446.484C446.09 124.963 445.712 125.12 445.434 125.4C445.156 125.679 445 126.057 445 126.452V139.217C445 139.611 445.156 139.989 445.435 140.267C445.713 140.545 446.091 140.702 446.484 140.702H459.25C459.644 140.702 460.023 140.546 460.302 140.268C460.581 139.989 460.739 139.612 460.74 139.217V126.452C460.739 126.057 460.582 125.678 460.303 125.399C460.023 125.12 459.645 124.963 459.25 124.961Z" fill="#9871F5"/>
<path d="M459.25 146.715H446.485C446.09 146.716 445.712 146.874 445.434 147.153C445.156 147.433 445 147.811 445 148.205V160.965C444.999 161.161 445.037 161.354 445.112 161.535C445.186 161.716 445.295 161.88 445.433 162.018C445.571 162.157 445.735 162.267 445.915 162.342C446.096 162.417 446.289 162.455 446.485 162.456H459.25C459.645 162.455 460.024 162.298 460.304 162.019C460.583 161.739 460.74 161.361 460.74 160.965V148.205C460.739 147.811 460.582 147.432 460.303 147.153C460.023 146.874 459.645 146.716 459.25 146.715Z" fill="#9871F5"/>
<path d="M459.25 168.469H446.485C446.09 168.47 445.712 168.628 445.434 168.907C445.156 169.186 445 169.565 445 169.959V182.719C444.999 182.914 445.037 183.108 445.112 183.289C445.186 183.469 445.295 183.634 445.433 183.772C445.571 183.91 445.735 184.02 445.915 184.095C446.096 184.17 446.289 184.209 446.485 184.209H459.25C459.645 184.209 460.024 184.052 460.304 183.773C460.583 183.493 460.74 183.114 460.74 182.719V169.959C460.739 169.564 460.582 169.186 460.303 168.906C460.023 168.627 459.645 168.47 459.25 168.469Z" fill="#9871F5"/>
<path d="M459.25 190.222H446.485C446.289 190.223 446.096 190.261 445.915 190.336C445.735 190.411 445.571 190.521 445.433 190.66C445.295 190.798 445.186 190.962 445.112 191.143C445.037 191.324 444.999 191.517 445 191.713V204.473C444.999 204.668 445.037 204.862 445.112 205.042C445.186 205.223 445.295 205.387 445.433 205.526C445.571 205.664 445.735 205.774 445.915 205.849C446.096 205.924 446.289 205.963 446.485 205.963H459.25C459.645 205.963 460.024 205.806 460.304 205.526C460.583 205.247 460.74 204.868 460.74 204.473V191.713C460.74 191.318 460.583 190.939 460.304 190.659C460.024 190.38 459.645 190.223 459.25 190.222Z" fill="#B8B8B8"/>
<path d="M486.054 103.208H473.288C472.894 103.209 472.516 103.367 472.238 103.646C471.96 103.926 471.803 104.304 471.804 104.698V117.464C471.804 117.857 471.96 118.235 472.239 118.513C472.517 118.792 472.895 118.948 473.288 118.948H486.054C486.448 118.948 486.827 118.792 487.106 118.514C487.385 118.236 487.543 117.858 487.544 117.464V104.698C487.543 104.303 487.386 103.925 487.106 103.646C486.827 103.366 486.449 103.209 486.054 103.208Z" fill="#B8B8B8"/>
<path d="M486.054 124.961H473.288C472.894 124.963 472.516 125.12 472.238 125.4C471.96 125.679 471.803 126.057 471.804 126.452V139.217C471.804 139.611 471.96 139.989 472.239 140.267C472.517 140.545 472.895 140.702 473.288 140.702H486.054C486.448 140.702 486.827 140.546 487.106 140.268C487.385 139.989 487.543 139.612 487.544 139.217V126.452C487.543 126.057 487.386 125.678 487.106 125.399C486.827 125.12 486.449 124.963 486.054 124.961Z" fill="#B8B8B8"/>
<path d="M486.054 146.715H473.288C472.894 146.716 472.516 146.874 472.238 147.153C471.96 147.433 471.803 147.811 471.804 148.205V160.965C471.803 161.161 471.841 161.354 471.915 161.535C471.99 161.716 472.099 161.88 472.237 162.018C472.375 162.157 472.539 162.267 472.719 162.342C472.899 162.417 473.093 162.455 473.288 162.456H486.054C486.449 162.455 486.828 162.298 487.107 162.019C487.387 161.739 487.544 161.361 487.544 160.965V148.205C487.543 147.811 487.386 147.432 487.106 147.153C486.827 146.874 486.449 146.716 486.054 146.715Z" fill="#9871F5"/>
<path d="M486.054 168.469H473.288C472.894 168.47 472.516 168.628 472.238 168.907C471.96 169.186 471.803 169.565 471.804 169.959V182.719C471.803 182.914 471.841 183.108 471.915 183.289C471.99 183.469 472.099 183.634 472.237 183.772C472.375 183.91 472.539 184.02 472.719 184.095C472.899 184.17 473.093 184.209 473.288 184.209H486.054C486.449 184.209 486.828 184.052 487.107 183.773C487.387 183.493 487.544 183.114 487.544 182.719V169.959C487.543 169.564 487.386 169.186 487.106 168.906C486.827 168.627 486.449 168.47 486.054 168.469Z" fill="#B8B8B8"/>
<path d="M486.054 190.222H473.288C473.093 190.223 472.899 190.261 472.719 190.336C472.539 190.411 472.375 190.521 472.237 190.66C472.099 190.798 471.99 190.962 471.915 191.143C471.841 191.324 471.803 191.517 471.804 191.713V204.473C471.803 204.668 471.841 204.862 471.915 205.042C471.99 205.223 472.099 205.387 472.237 205.526C472.375 205.664 472.539 205.774 472.719 205.849C472.899 205.924 473.093 205.963 473.288 205.963H486.054C486.449 205.963 486.828 205.806 487.107 205.526C487.387 205.247 487.544 204.868 487.544 204.473V191.713C487.544 191.318 487.387 190.939 487.107 190.659C486.828 190.38 486.449 190.223 486.054 190.222Z" fill="#B8B8B8"/>
<path d="M192.655 378.353H192.3L192.604 378.313L192.655 378.353Z" fill="#2F2E41"/>
<path d="M162.114 140.47C183.744 140.47 201.278 122.936 201.278 101.307C201.278 79.6772 183.744 62.1432 162.114 62.1432C140.485 62.1432 122.951 79.6772 122.951 101.307C122.951 122.936 140.485 140.47 162.114 140.47Z" fill="#FFB6B6"/>
<path d="M196.411 72.5926C196.411 72.5926 206.654 53.0109 184.119 51.2308C184.119 51.2308 164.908 33.8036 145.326 48.0448C145.326 48.0448 134.645 48.0448 128.804 60.1315C128.804 60.1315 120.404 56.9456 118.558 65.472C118.558 65.472 112.411 83.2735 118.558 99.2949C124.705 115.316 126.746 117.096 126.746 117.096C126.746 117.096 116.646 83.5068 141.232 81.7266C165.817 79.9464 193.33 64.5819 195.379 84.1636C197.427 103.745 200.511 108.57 200.511 108.57C200.511 108.57 219.971 80.6033 196.411 72.5926Z" fill="#484335"/>
<path d="M263.421 197.823L263.295 198.488L261.879 205.963L252.095 257.667L251.516 260.711L250.301 267.148L248.638 275.93L244.952 295.391L243.898 300.968L243.502 303.06L243.365 303.794L242.27 309.566L241.937 311.309L239.266 331.102L236.933 348.35L244.74 356.158L240.086 360.812L237.031 378.313L237.036 378.353H112.344C107.3 375.085 102.328 371.717 97.4289 368.247L98.4549 360.566C98.4549 360.566 101.986 346.849 100.501 345.209C99.0224 343.57 95.7779 340.641 95.7779 340.641L99.865 331.102L100.433 329.778L99.481 310.042L99.4581 309.566L99.1428 303.06L99.1027 302.223L99.0396 300.968L97.8301 275.93L97.8072 275.517L97.4404 267.928L97.0964 260.711L96.9474 257.667L95.4742 227.212L94.4768 206.53L93.6055 188.526L97.1079 187.339L134.568 174.608L150.085 154.436L182.38 154.677L198.189 154.797L224.569 179.262L230.57 182.128L230.616 182.151L234.921 184.209L245.835 189.42L257.374 194.934L263.295 197.76L263.421 197.823Z" fill="#CACACA"/>
<path d="M154.258 319.599C151.892 320.515 149.353 320.902 146.821 320.732C144.288 320.561 141.824 319.838 139.602 318.612C137.38 317.386 135.453 315.688 133.958 313.637C132.463 311.586 131.436 309.232 130.949 306.741L69.8674 298.075L91.1011 274.056L145.85 285.968C150.088 285.427 154.378 286.46 157.906 288.871C161.434 291.282 163.955 294.903 164.992 299.049C166.028 303.194 165.508 307.576 163.53 311.363C161.551 315.151 158.253 318.081 154.258 319.599V319.599Z" fill="#FFB6B6"/>
<path d="M127.024 275.93C125.893 274.496 124.291 273.507 122.501 273.138L97.4403 267.928L94.8665 267.395C93.3708 267.083 91.9578 266.458 90.7201 265.562C89.4824 264.666 88.4478 263.519 87.6841 262.196C86.8918 260.806 86.4125 259.261 86.2797 257.667C86.1602 256.218 86.3337 254.76 86.7898 253.38L95.4741 227.212L101.109 210.233C101.792 208.186 102.195 206.055 102.307 203.899C102.621 197.934 100.775 192.055 97.1077 187.339C93.8836 183.194 89.4117 180.196 84.3528 178.788C79.2938 177.38 73.9162 177.637 69.0143 179.52C68.871 179.572 68.722 179.629 68.5787 179.687C65.0633 181.09 61.9225 183.292 59.4045 186.119C56.8866 188.945 55.0605 192.318 54.0705 195.972L47.9485 218.241L35.3205 264.15C34.0564 268.75 33.801 273.569 34.5718 278.276C35.3427 282.984 37.1215 287.469 39.7866 291.425C42.4517 295.382 45.9402 298.715 50.0132 301.198C54.0862 303.681 58.6477 305.255 63.3853 305.812L99.4809 310.042L116.184 312.003C118.116 312.235 120.064 311.731 121.64 310.591C123.217 309.451 124.306 307.759 124.691 305.852C124.718 305.748 124.739 305.643 124.754 305.537L125.155 303.06L128.555 282.207L128.589 281.995C128.766 280.93 128.718 279.841 128.449 278.797C128.179 277.752 127.694 276.776 127.024 275.93Z" fill="#CACACA"/>
<path d="M193.165 320.267C195.637 320.841 198.205 320.866 200.688 320.34C203.171 319.814 205.508 318.75 207.535 317.223C209.563 315.696 211.23 313.743 212.421 311.502C213.612 309.261 214.297 306.786 214.428 304.251L273.677 287.058L249.268 266.274L196.747 285.787C192.474 285.849 188.373 287.477 185.22 290.361C182.067 293.245 180.082 297.186 179.64 301.436C179.199 305.686 180.332 309.951 182.824 313.421C185.317 316.892 188.996 319.328 193.165 320.267V320.267Z" fill="#FFB6B6"/>
<path d="M303.094 248.599L274.914 183.745C272.61 178.421 268.493 174.085 263.295 171.507C261.689 170.716 260.001 170.101 258.263 169.672C257.993 169.604 257.724 169.541 257.454 169.489C253.767 168.684 249.943 168.755 246.288 169.695C242.947 170.554 239.825 172.107 237.124 174.253C234.424 176.399 232.206 179.09 230.616 182.151C230.599 182.177 230.583 182.204 230.57 182.232C228.794 185.668 227.85 189.473 227.813 193.341C227.776 197.209 228.648 201.032 230.358 204.501L230.708 205.201L250.622 245.194C251.302 246.562 251.685 248.058 251.746 249.584C251.807 251.11 251.545 252.631 250.976 254.049C250.408 255.467 249.546 256.748 248.448 257.809C247.35 258.871 246.039 259.687 244.603 260.207L243.204 260.711L218.051 269.797C216.164 270.47 214.611 271.85 213.721 273.645C212.83 275.44 212.671 277.511 213.276 279.421L213.339 279.622L220.39 302.183C220.424 302.287 220.459 302.39 220.499 302.493C220.561 302.688 220.637 302.877 220.728 303.06C221.477 304.741 222.802 306.099 224.463 306.89C226.124 307.681 228.014 307.854 229.791 307.377L243.365 303.794L246.133 303.06L281.185 293.803C285.798 292.584 290.092 290.383 293.775 287.351C297.457 284.318 300.441 280.525 302.521 276.232C304.602 271.94 305.73 267.248 305.829 262.478C305.928 257.709 304.995 252.974 303.094 248.599L303.094 248.599Z" fill="#CACACA"/>
<path d="M25.7363 303.06C33.8591 312.968 42.6193 322.335 51.9611 331.102H311.039C313.535 331.106 315.927 332.1 317.692 333.865C319.456 335.631 320.449 338.024 320.451 340.52L320.824 406.171C336.762 398.848 351.688 389.498 365.231 378.353C368.991 375.263 372.635 372.04 376.162 368.682C378.472 366.493 380.727 364.25 382.926 361.953C399.414 344.776 412.765 324.844 422.375 303.06H25.7363Z" fill="#3F3D56"/>
<path d="M382.926 361.953C380.731 364.251 378.476 366.495 376.162 368.682H321.013V361.953H382.926Z" fill="white"/>
<path d="M262.906 146.715C262.633 146.212 262.23 145.792 261.739 145.5C261.247 145.207 260.686 145.053 260.114 145.053H72.19C71.3474 145.055 70.5401 145.391 69.9449 145.987C69.3496 146.584 69.015 147.392 69.0143 148.234V260.711H263.295V148.234C263.298 147.703 263.164 147.179 262.906 146.715Z" fill="#3F3D56"/>
<path d="M68.8442 257.666V271.546C68.8442 272.121 68.9576 272.691 69.1778 273.222C69.398 273.754 69.7207 274.237 70.1276 274.644C70.5344 275.051 71.0175 275.374 71.5491 275.594C72.0807 275.814 72.6504 275.927 73.2258 275.927H144.934V303.319H143.981C143.906 303.319 143.832 303.334 143.763 303.363C143.694 303.391 143.631 303.433 143.578 303.486C143.526 303.539 143.484 303.602 143.455 303.671C143.426 303.74 143.412 303.814 143.412 303.889V305.794C143.412 305.869 143.426 305.943 143.455 306.012C143.484 306.081 143.526 306.144 143.578 306.196C143.631 306.249 143.694 306.291 143.763 306.32C143.832 306.348 143.906 306.363 143.981 306.363H188.496C188.571 306.363 188.645 306.348 188.714 306.32C188.783 306.291 188.846 306.249 188.899 306.196C188.952 306.144 188.993 306.081 189.022 306.012C189.051 305.943 189.065 305.869 189.065 305.794V303.889C189.065 303.814 189.051 303.74 189.022 303.671C188.993 303.602 188.952 303.539 188.899 303.486C188.846 303.433 188.783 303.391 188.714 303.363C188.645 303.334 188.571 303.319 188.496 303.319H187.544V275.927H259.251C259.827 275.927 260.397 275.814 260.928 275.594C261.46 275.374 261.943 275.051 262.35 274.644C262.757 274.237 263.079 273.754 263.299 273.222C263.52 272.691 263.633 272.121 263.633 271.546V257.666H68.8442Z" fill="#3F3D56"/>
<path d="M163.885 217.829C173.796 217.829 181.83 209.794 181.83 199.883C181.83 189.972 173.796 181.938 163.885 181.938C153.974 181.938 145.939 189.972 145.939 199.883C145.939 209.794 153.974 217.829 163.885 217.829Z" fill="#9871F5"/>
<path d="M209.608 99.1666H206.742C206.742 77.4989 185.298 63.3003 163.664 63.2888C160.518 63.2796 157.378 63.5849 154.292 64.2002C150.818 64.8938 147.213 65.725 143.67 66.8084C129.701 71.0903 116.746 79.3676 116.746 99.1666C116.743 103.012 117.233 106.841 118.202 110.562L115.428 111.284C114.399 107.327 113.879 103.255 113.88 99.1666C113.88 81.8668 120.982 69.984 133.249 62.899C139.698 59.1731 147.568 56.7713 156.585 55.602C160.337 55.1028 164.13 54.9875 167.906 55.258C192.784 57.0464 209.608 76.1232 209.608 99.1666Z" fill="#9871F5"/>
<path d="M214.383 100.754L213.253 92.4083C212.975 90.3006 211.96 88.3594 210.387 86.9283C209.378 85.9954 208.17 85.3042 206.854 84.907C205.538 84.5097 204.149 84.4169 202.792 84.6355L200.998 84.8819C200.507 84.9466 200.034 85.108 199.606 85.357C199.178 85.6059 198.803 85.9374 198.504 86.3322C198.203 86.7256 197.982 87.1749 197.856 87.654C197.729 88.1332 197.698 88.6327 197.765 89.1238L200.373 108.35C200.481 109.133 200.832 109.863 201.377 110.436C201.922 111.009 202.634 111.396 203.411 111.542C203.641 111.588 203.876 111.612 204.111 111.611C204.279 111.611 204.448 111.6 204.615 111.577L206.621 111.307C207.844 111.145 209.022 110.734 210.08 110.1C211.139 109.467 212.057 108.623 212.778 107.622C212.932 107.404 213.081 107.18 213.219 106.951C214.293 105.075 214.703 102.892 214.383 100.754Z" fill="#9871F5"/>
<path d="M199.84 85.2316C199.314 85.4873 198.856 85.8646 198.504 86.3322C198.203 86.7256 197.982 87.1749 197.856 87.654C197.729 88.1332 197.698 88.6327 197.765 89.1238L200.373 108.35C200.481 109.133 200.832 109.863 201.377 110.436C201.922 111.009 202.634 111.396 203.411 111.542L199.84 85.2316Z" fill="#DCE3F1"/>
<path d="M214.383 100.754L213.253 92.4083C212.975 90.3006 211.96 88.3594 210.387 86.9283L212.984 106.057C213.023 106.364 213.102 106.664 213.219 106.951C214.293 105.075 214.703 102.892 214.383 100.754Z" fill="#3F3D56"/>
<path d="M205.458 106.768C206.242 106.661 206.636 104.795 206.338 102.599C206.041 100.403 205.163 98.7092 204.379 98.8156C203.595 98.922 203.2 100.788 203.498 102.984C203.796 105.18 204.674 106.874 205.458 106.768Z" fill="#3F3D56"/>
<path d="M203.738 96.4499C204.522 96.3435 204.917 94.4771 204.619 92.2811C204.321 90.0852 203.444 88.3913 202.659 88.4977C201.875 88.6041 201.481 90.4705 201.779 92.6664C202.077 94.8624 202.954 96.5563 203.738 96.4499Z" fill="#3F3D56"/>
<path d="M214.629 100.462C215.414 100.356 215.808 98.4897 215.51 96.2937C215.212 94.0978 214.335 92.4038 213.55 92.5102C212.766 92.6166 212.372 94.483 212.67 96.679C212.968 98.8749 213.845 100.569 214.629 100.462Z" fill="#3F3D56"/>
<path d="M163.664 63.2888C160.518 63.2796 157.378 63.5849 154.292 64.2002C150.818 64.8938 147.213 65.725 143.67 66.8083C138.139 66.5389 134.069 65.1059 133.249 62.899C139.698 59.1731 147.568 56.7713 156.585 55.6019C160.337 55.1027 164.13 54.9875 167.906 55.258C168.306 55.4923 168.651 55.8085 168.92 56.1859C169.189 56.5633 169.375 56.9933 169.465 57.4477C169.735 59.4425 167.459 61.5634 163.664 63.2888Z" fill="#3F3D56"/>
<path d="M127.07 119.057L122.656 100.709C122.499 100.047 122.149 99.4458 121.652 98.9818C121.154 98.5178 120.53 98.2111 119.859 98.1004C119.669 98.0709 119.478 98.0555 119.286 98.0545C119.015 98.0555 118.746 98.0882 118.483 98.152L116.775 98.5647C114.576 99.0966 112.677 100.479 111.496 102.409C110.315 104.339 109.948 106.659 110.475 108.86L112.453 117.091C112.904 119.029 113.98 120.765 115.514 122.032C115.762 122.233 116.023 122.419 116.293 122.588C117.254 123.191 118.326 123.594 119.445 123.775C120.565 123.956 121.709 123.911 122.811 123.643L124.513 123.23C124.964 123.125 125.387 122.928 125.757 122.651C126.308 122.25 126.727 121.694 126.96 121.054C127.194 120.414 127.232 119.719 127.07 119.057Z" fill="#9871F5"/>
<path d="M117.817 115.643C118.586 115.458 118.79 113.561 118.271 111.407C117.753 109.252 116.709 107.656 115.939 107.841C115.17 108.026 114.966 109.923 115.485 112.077C116.003 114.232 117.047 115.828 117.817 115.643Z" fill="#3F3D56"/>
<path d="M112.085 117.363C112.854 117.178 113.058 115.281 112.539 113.126C112.021 110.972 110.977 109.375 110.207 109.561C109.438 109.746 109.234 111.642 109.753 113.797C110.271 115.952 111.315 117.548 112.085 117.363Z" fill="#3F3D56"/>
<path d="M127.351 118.988L122.937 100.64C122.765 99.9235 122.386 99.2739 121.846 98.7722C121.307 98.2706 120.632 97.9392 119.905 97.8195L125.929 122.881C126.524 122.445 126.977 121.843 127.23 121.15C127.483 120.457 127.525 119.705 127.351 118.988Z" fill="#DCE3F1"/>
<path d="M111.473 105.225C111.351 104.715 111.122 104.237 110.802 103.821C110.182 105.428 110.068 107.186 110.475 108.86L112.453 117.091C112.904 119.029 113.98 120.765 115.514 122.032L111.473 105.225Z" fill="#3F3D56"/>
</g>
<defs>
<clipPath id="clip0_812_3">
<rect width="487.544" height="424.657" fill="white"/>
</clipPath>
</defs>
</svg>
